PathFileType	4	(X/Y/Z)	5_coords_data.trc
DataRate	CameraRate	NumFrames	NumMarkers	Units	OrigDataRate	OrigDataStartFrame	OrigNumFrames
30.0	30.0	6	21	m	30.0	53	63
Frame#	Time	THUMB_TIP	THUMB_IP	THUMB_MCP	THUMB_CMC	INDEX_TIP	INDEX_DIP	INDEX_PIP	INDEX_MCP	MIDDLE_TIP	MIDDLE_DIP	MIDDLE_PIP	MIDDLE_MCP	RING_TIP	RING_DIP	RING_PIP	RING_MCP	PINKY_TIP	PINKY_DIP	PINKY_PIP	PINKY_MCP	WRIST
X1	Y1	Z1	X2	Y2	Z2	X3	Y3	Z3	X4	Y4	Z4	X5	Y5	Z5	X6	Y6	Z6	X7	Y7	Z7	X8	Y8	Z8	X9	Y9	Z9	X10	Y10	Z10	X11	Y11	Z11	X12	Y12	Z12	X13	Y13	Z13	X14	Y14	Z14	X15	Y15	Z15	X16	Y16	Z16	X17	Y17	Z17	X18	Y18	Z18	X19	Y19	Z19	X20	Y20	Z20	X21	Y21	Z21
52	1.7333333333333334	-0.026424800872802735	-0.16451600646972656	0.9945770263671875	-0.022556699752807618	-0.14032000732421876	1.0039299926757812	-0.0320614013671875	-0.12115599822998047	1.0244599609375	-0.032588199615478514	-0.08881839752197265	1.03597998046875	-0.010076899528503418	-0.11415200042724609	0.9011309814453125	-0.017013999938964845	-0.11325599670410157	0.9231690063476562	-0.02502989959716797	-0.11106300354003906	0.945364013671875	-0.03393989944458008	-0.10563200378417968	0.9801179809570313	-0.0047589998245239256	-0.08691410064697265	0.8870560302734375	-0.011493300437927246	-0.08861380004882813	0.9106519775390625	-0.021864700317382812	-0.08879149627685547	0.9383800048828125	-0.033449501037597654	-0.08565170288085938	0.9738809814453125	-0.006604549884796143	-0.06571659851074219	0.8927100219726563	-0.01368570041656494	-0.06545279693603516	0.915655029296875	-0.02340369987487793	-0.06560870361328125	0.9409329833984375	-0.032126201629638675	-0.06716699981689453	0.9765	-0.009750160217285156	-0.04129339981079101	0.9173109741210937	-0.01638640022277832	-0.04356750106811524	0.9368060302734375	-0.02187849998474121	-0.0461161994934082	0.9540679931640625	-0.027089099884033203	-0.05036740112304688	0.9798889770507813	-0.05064289855957031	-0.05812870025634766	1.048510009765625
53	1.7666666666666666	-0.026891700744628905	-0.16436099243164062	0.9946119995117187	-0.02295400047302246	-0.14021400451660157	1.004010009765625	-0.03245029830932617	-0.12112300109863282	1.0246800537109375	-0.03293899917602539	-0.08885269927978516	1.036300048828125	-0.010709199905395508	-0.11402100372314453	0.9012979736328125	-0.017512300491333007	-0.11313500213623047	0.9233560180664062	-0.025468799591064455	-0.11101399993896484	0.945541015625	-0.03435290145874023	-0.10564099884033203	0.9803359985351563	-0.005125760078430176	-0.08650749969482421	0.8873590087890625	-0.011824700355529785	-0.08830280303955078	0.9109559936523437	-0.02217289924621582	-0.08857420349121094	0.938655029296875	-0.03392919921875	-0.08549939727783203	0.974458984375	-0.006607999801635742	-0.06539330291748047	0.8931519775390625	-0.01376930046081543	-0.06518479919433594	0.9160780029296876	-0.023552600860595702	-0.06540879821777344	0.941333984375	-0.0324724006652832	-0.06709390258789062	0.9768319702148438	-0.009971639633178712	-0.041031299591064455	0.9177869873046876	-0.016628799438476564	-0.043351699829101566	0.9373060302734375	-0.022139299392700196	-0.04593970108032226	0.9545700073242187	-0.027329299926757814	-0.05036330032348633	0.9802739868164062	-0.05094729995727539	-0.058149200439453125	1.0488599853515626
54	1.8	-0.02709589958190918	-0.16403700256347656	0.9947020263671875	-0.02319820022583008	-0.13989799499511718	1.0040999755859374	-0.032691398620605466	-0.12086499786376953	1.0248399658203124	-0.033280399322509764	-0.08857599639892579	1.036530029296875	-0.010948399543762206	-0.11365299987792969	0.9015089721679688	-0.017765100479125977	-0.11282199859619141	0.9234959716796876	-0.025643699645996092	-0.11073500061035156	0.9457540283203125	-0.03469559860229492	-0.1053550033569336	0.980593017578125	-0.005754680156707764	-0.08631179809570312	0.8875070190429688	-0.01240120029449463	-0.08810340118408203	0.9111400146484375	-0.022637300491333008	-0.08837249755859375	0.9388359985351562	-0.034196498870849606	-0.085385498046875	0.9743040161132812	-0.00734853982925415	-0.06529720306396485	0.89325	-0.0143927001953125	-0.0650457992553711	0.9162230224609375	-0.02410569953918457	-0.06528450012207031	0.9415139770507812	-0.03284090042114258	-0.06689089965820312	0.9769940185546875	-0.010742799758911133	-0.040412899017333984	0.9178720092773438	-0.01730229949951172	-0.042883800506591796	0.9373820190429687	-0.022736700057983398	-0.04561159896850586	0.9546199951171875	-0.027803699493408204	-0.05012030029296875	0.9803779907226563	-0.0513401985168457	-0.05793999862670898	1.0491700439453124
55	1.8333333333333333	-0.027575199127197265	-0.1634010009765625	0.9944539794921875	-0.023698900222778322	-0.1392220001220703	1.0038900146484375	-0.03300579833984375	-0.1203759994506836	1.0246600341796874	-0.03368539810180664	-0.0880823974609375	1.036449951171875	-0.011833900451660157	-0.11301799774169922	0.9013690185546875	-0.018540199279785157	-0.1122239990234375	0.9233900146484375	-0.02637809944152832	-0.11014399719238281	0.9456699829101562	-0.035270401000976566	-0.10483699798583984	0.9805609741210938	-0.006504389762878418	-0.08577300262451172	0.8874149780273437	-0.013134900093078614	-0.08757869720458984	0.9110440063476563	-0.02330019950866699	-0.08785459899902344	0.9387880249023437	-0.03478879928588867	-0.0848373031616211	0.974260009765625	-0.007895219802856445	-0.0646010971069336	0.89318798828125	-0.014967499732971191	-0.06438860321044922	0.91614599609375	-0.02470199966430664	-0.06465339660644531	0.9414580078125	-0.033424301147460936	-0.06633000183105468	0.976926025390625	-0.011492799758911133	-0.0396864013671875	0.917823974609375	-0.018020599365234376	-0.04222309875488281	0.9373369750976562	-0.023409500122070312	-0.04497869873046875	0.9546190185546874	-0.02842099952697754	-0.04953440093994141	0.9803930053710938	-0.05176340103149414	-0.0574827995300293	1.0491700439453124
56	1.8666666666666667	-0.027961200714111328	-0.16249600219726562	0.9939840087890625	-0.02408679962158203	-0.13841900634765625	1.003469970703125	-0.033498100280761715	-0.11966300201416015	1.0243900146484375	-0.03415370178222656	-0.08738929748535157	1.0362900390625	-0.012259900093078613	-0.11186100006103515	0.9012009887695313	-0.018978900909423828	-0.11115399932861328	0.923197998046875	-0.026837400436401367	-0.10916200256347657	0.945510986328125	-0.035797100067138675	-0.10404900360107422	0.980333984375	-0.006822830200195313	-0.08448600006103515	0.8873350219726562	-0.013501199722290039	-0.0864124984741211	0.9108889770507812	-0.023700599670410157	-0.08682740020751953	0.9386640014648437	-0.03535879898071289	-0.08387329864501954	0.9742760009765625	-0.008131979942321777	-0.06332789993286132	0.893198974609375	-0.015277799606323242	-0.06325899887084961	0.9160889892578125	-0.025078899383544923	-0.06361700057983398	0.9414420166015625	-0.03395349884033203	-0.06545069885253907	0.9769739990234375	-0.01202079963684082	-0.03873949813842773	0.9178200073242188	-0.018586099624633787	-0.041296699523925784	0.9374039916992187	-0.024008800506591797	-0.04409360122680664	0.95475	-0.028904499053955077	-0.04875490188598633	0.9803389892578125	-0.05234429931640625	-0.056865001678466795	1.049050048828125
57	1.9	-0.028182899475097656	-0.1616490020751953	0.993843017578125	-0.024427200317382814	-0.13761799621582033	1.0034600219726562	-0.03383280181884766	-0.11891300201416016	1.0244300537109374	-0.03471009826660156	-0.08665560150146484	1.036449951171875	-0.012375699996948241	-0.11075700378417969	0.901291015625	-0.019219999313354493	-0.11012000274658203	0.9232979736328125	-0.027170400619506836	-0.10828399658203125	0.9455919799804687	-0.03628319931030274	-0.10328500366210938	0.98039599609375	-0.007099370002746582	-0.08345600128173829	0.8874730224609375	-0.013852100372314453	-0.08545169830322266	0.9110260009765625	-0.02407620048522949	-0.08593669891357422	0.938719970703125	-0.03591529846191406	-0.08314140319824219	0.9743599853515625	-0.008377659797668456	-0.06219580078125	0.8934290161132813	-0.015587599754333496	-0.062190200805664064	0.9163159790039063	-0.02549340057373047	-0.06268090057373046	0.9415869750976562	-0.03443619918823242	-0.06467289733886719	0.9769869995117187	-0.01253890037536621	-0.037746101379394534	0.9180349731445312	-0.019079200744628905	-0.0403557014465332	0.937593994140625	-0.024485599517822264	-0.04325559997558594	0.9549039916992188	-0.029501699447631837	-0.04796770095825195	0.9805230102539062	-0.05302019882202148	-0.05612540054321289	1.0494599609375
